<svg width="63" height="58" viewBox="0 0 63 58" fill="none" xmlns="http://www.w3.org/2000/svg">
<path d="M2.26175 32.517C2.96537 32.7515 24.1599 40.3976 27.1479 41.4757C27.38 41.5594 27.6232 41.5502 27.8518 41.4573L59.6831 28.5334C60.3406 28.2664 61.0593 28.7502 61.0593 29.4599V42.704C61.0593 43.1063 60.8181 43.4695 60.4473 43.6256L27.8544 57.349C27.6243 57.4459 27.3663 57.4532 27.1311 57.3695L1.91716 48.3991C1.51857 48.2573 1.25235 47.8801 1.25235 47.457V45.3287C1.25235 44.6269 1.95633 44.1434 2.61133 44.3954L22.8572 52.1823C23.5122 52.4342 24.2162 51.9507 24.2162 51.2489V45.817C24.2162 45.4053 23.9639 45.0357 23.5806 44.8857L1.6356 36.2985C1.25226 36.1485 1 35.7799 1 35.3682V32.517C1 32.2647 1.5047 32.2647 2.26175 32.517Z" fill="url(#paint0_linear_1415_2269)"/>
<path d="M61.0593 24.557L61.0593 22.4569C61.0593 21.739 60.3252 21.255 59.6654 21.5378L27.8479 35.1738C27.6218 35.2707 27.3678 35.2809 27.1347 35.2023L4.96123 27.7308C4.55447 27.5938 4.28055 27.2124 4.28055 26.7832V21.3232C4.28055 20.6392 4.95174 20.1571 5.59987 20.3755L27.1381 27.633C27.3692 27.7108 27.6208 27.7016 27.8455 27.607L59.8354 14.1375C60.577 13.8253 61.0593 13.0989 61.0593 12.2943V11.9676C61.0593 11.1401 60.5496 10.398 59.7772 10.1009L35.1881 0.643563C34.9485 0.551402 34.6826 0.554928 34.4456 0.653411L2.24637 14.0285C2.09091 14.0931 1.95426 14.1958 1.8491 14.3273L1.21913 15.1147C1.07728 15.2921 1 15.507 1 15.7341V28.2585C1 29.2679 1.25234 29.5203 2.0094 29.7726C2.71339 30.0073 24.1473 37.6611 27.1489 38.733C27.3802 38.8156 27.6225 38.8062 27.8501 38.7137L60.4355 25.4836C60.8126 25.3305 61.0593 24.9641 61.0593 24.557Z" fill="url(#paint1_linear_1415_2269)"/>
<defs>
<linearGradient id="paint0_linear_1415_2269" x1="31.0296" y1="27.9746" x2="31.0296" y2="57.4996" gradientUnits="userSpaceOnUse">
<stop stop-color="#07C675"/>
<stop offset="1" stop-color="#1DC078"/>
</linearGradient>
<linearGradient id="paint1_linear_1415_2269" x1="31.0296" y1="0.5" x2="31.0296" y2="38.8572" gradientUnits="userSpaceOnUse">
<stop stop-color="#67DCAA"/>
<stop offset="1" stop-color="#00C471"/>
</linearGradient>
</defs>
</svg>
