<svg width="214" height="96" viewBox="0 0 214 96" fill="none" xmlns="http://www.w3.org/2000/svg">
<rect width="214" height="96" fill="white"/>
<path d="M2.26175 52.017C2.96537 52.2515 24.1599 59.8976 27.1479 60.9757C27.38 61.0594 27.6232 61.0502 27.8518 60.9573L59.6831 48.0334C60.3406 47.7664 61.0593 48.2502 61.0593 48.9599V62.204C61.0593 62.6063 60.8181 62.9695 60.4473 63.1256L27.8544 76.849C27.6243 76.9459 27.3663 76.9532 27.1311 76.8695L1.91716 67.8991C1.51857 67.7573 1.25235 67.3801 1.25235 66.957V64.8287C1.25235 64.1269 1.95633 63.6434 2.61133 63.8954L22.8572 71.6823C23.5122 71.9342 24.2162 71.4507 24.2162 70.7489V65.317C24.2162 64.9053 23.9639 64.5357 23.5806 64.3857L1.6356 55.7985C1.25226 55.6485 1 55.2799 1 54.8682V52.017C1 51.7647 1.5047 51.7647 2.26175 52.017Z" fill="url(#paint0_linear_1999_1866)"/>
<path d="M61.0593 44.057L61.0593 41.9569C61.0593 41.239 60.3252 40.755 59.6654 41.0378L27.8479 54.6738C27.6218 54.7707 27.3678 54.7809 27.1347 54.7023L4.96123 47.2308C4.55447 47.0938 4.28055 46.7124 4.28055 46.2832V40.8232C4.28055 40.1392 4.95174 39.6571 5.59987 39.8755L27.1381 47.133C27.3692 47.2108 27.6208 47.2016 27.8455 47.107L59.8354 33.6375C60.577 33.3253 61.0593 32.5989 61.0593 31.7943V31.4676C61.0593 30.6401 60.5496 29.898 59.7772 29.6009L35.1881 20.1436C34.9485 20.0514 34.6826 20.0549 34.4456 20.1534L2.24637 33.5285C2.09091 33.5931 1.95426 33.6958 1.8491 33.8273L1.21913 34.6147C1.07728 34.7921 1 35.007 1 35.2341V47.7585C1 48.7679 1.25234 49.0203 2.0094 49.2726C2.71339 49.5073 24.1473 57.1611 27.1489 58.233C27.3802 58.3156 27.6225 58.3062 27.8501 58.2137L60.4355 44.9836C60.8126 44.8305 61.0593 44.4641 61.0593 44.057Z" fill="url(#paint1_linear_1999_1866)"/>
<path d="M74.05 48.05C73.7833 47.6833 73.65 47.2667 73.65 46.8C73.65 46.4 73.75 46.0167 73.95 45.65C74.15 45.2833 74.4167 45 74.75 44.8C77.2833 43.3667 79.25 41.75 80.65 39.95C82.05 38.15 82.75 36.0167 82.75 33.55V33.25H76.25C75.65 33.25 75.1333 33.0833 74.7 32.75C74.2667 32.3833 74.05 31.85 74.05 31.15C74.05 30.45 74.2667 29.9333 74.7 29.6C75.1333 29.2333 75.65 29.05 76.25 29.05H82.8V25.35C82.8 24.65 82.9833 24.0833 83.35 23.65C83.75 23.2167 84.4 23 85.3 23C86.9667 23 87.8 23.7833 87.8 25.35V29.05H94.05C94.75 29.05 95.3333 29.2333 95.8 29.6C96.2667 29.9333 96.5 30.45 96.5 31.15C96.5 31.85 96.2667 32.3833 95.8 32.75C95.3333 33.0833 94.75 33.25 94.05 33.25H87.85V33.55C87.85 34.9833 87.65 36.35 87.25 37.65C90.6833 39.5833 93.6167 41.6667 96.05 43.9C96.6833 44.5 97 45.1167 97 45.75C97 46.3167 96.75 46.85 96.25 47.35C95.75 47.85 95.1667 48.1 94.5 48.1C93.8667 48.1 93.3 47.8667 92.8 47.4C90.0667 45 87.5333 43.1667 85.2 41.9C83.3333 44.6667 80.7667 46.9333 77.5 48.7C77.0667 48.9667 76.5833 49.1 76.05 49.1C75.2167 49.1 74.55 48.75 74.05 48.05ZM104.2 47.1C104.2 48.5667 103.417 49.3 101.85 49.3C100.317 49.3 99.55 48.5667 99.55 47.1V26.15C99.55 25.4167 99.7333 24.8833 100.1 24.55C100.467 24.1833 101.05 24 101.85 24C103.417 24 104.2 24.7 104.2 26.1V33.55H110V25.65C110 24.2167 110.767 23.5 112.3 23.5C113.867 23.5 114.65 24.2167 114.65 25.65V48.1C114.65 49.5667 113.867 50.3 112.3 50.3C110.767 50.3 110 49.5667 110 48.1V37.75H104.2V47.1ZM112 68.7C111.1 68.7 110.4 68.5 109.9 68.1C109.4 67.7 109.183 67.1667 109.25 66.5C109.617 63.5667 109.8 61.4833 109.8 60.25C109.8 59.2167 109.433 58.5 108.7 58.1C107.967 57.6667 106.783 57.4 105.15 57.3C103.25 57.2 100.983 57.15 98.35 57.15C92.95 57.15 87.8833 57.3333 83.15 57.7C82.45 57.7333 81.9 57.5667 81.5 57.2C81.1333 56.8 80.95 56.2333 80.95 55.5C80.95 54.8 81.1167 54.3 81.45 54C81.7833 53.6667 82.35 53.4667 83.15 53.4C87.15 52.9667 91.95 52.75 97.55 52.75C101.183 52.75 104.317 52.85 106.95 53.05C109.05 53.2167 110.667 53.5333 111.8 54C112.933 54.4333 113.733 55.1 114.2 56C114.7 56.8667 114.95 58.0833 114.95 59.65C114.95 60.5833 114.883 61.6833 114.75 62.95C114.65 64.2167 114.5 65.3833 114.3 66.45C114.167 67.25 113.9 67.8167 113.5 68.15C113.133 68.5167 112.633 68.7 112 68.7ZM125.121 62.45C124.355 62.45 123.721 62.25 123.221 61.85C122.755 61.45 122.521 60.9333 122.521 60.3V28.3C122.521 27.6667 122.755 27.1667 123.221 26.8C123.688 26.4 124.321 26.2 125.121 26.2C125.955 26.2 126.605 26.3833 127.071 26.75C127.538 27.1167 127.771 27.6333 127.771 28.3V28.8C129.305 28.3 130.938 27.9 132.671 27.6C134.405 27.3 135.888 27.15 137.121 27.15C137.655 27.15 138.038 27.1667 138.271 27.2C141.205 27.5 143.288 28.5667 144.521 30.4C145.755 32.2333 146.371 34.7167 146.371 37.85C146.371 40.2167 146.105 43.0667 145.571 46.4C145.071 49.7333 144.288 52.9333 143.221 56L144.271 55.9C144.938 55.8333 145.455 56 145.821 56.4C146.188 56.8 146.371 57.4 146.371 58.2C146.371 58.9667 146.188 59.5167 145.821 59.85C145.488 60.2167 144.955 60.4333 144.221 60.5C140.821 60.7667 137.855 60.9 135.321 60.9C133.288 60.9 130.771 60.8167 127.771 60.65C127.705 61.2167 127.438 61.65 126.971 61.95C126.505 62.2833 125.888 62.45 125.121 62.45ZM155.621 68.75C154.821 68.75 154.205 68.55 153.771 68.15C153.371 67.75 153.171 67.2167 153.171 66.55V25.65C153.171 24.9833 153.371 24.4667 153.771 24.1C154.171 23.7 154.788 23.5 155.621 23.5C156.488 23.5 157.121 23.7 157.521 24.1C157.955 24.4667 158.171 24.9833 158.171 25.65V40.7H163.321C164.088 40.7 164.638 40.8667 164.971 41.2C165.338 41.5 165.521 42.0167 165.521 42.75C165.521 43.5167 165.338 44.0667 164.971 44.4C164.638 44.7333 164.088 44.9 163.321 44.9H158.171V66.55C158.171 67.25 157.955 67.7833 157.521 68.15C157.121 68.55 156.488 68.75 155.621 68.75ZM127.771 56.05C130.705 56.2167 133.188 56.3 135.221 56.3C136.688 56.3 137.788 56.2833 138.521 56.25C139.388 53.2833 140.055 50.1667 140.521 46.9C141.021 43.6333 141.271 40.9 141.271 38.7C141.271 36.4333 140.905 34.7167 140.171 33.55C139.438 32.3833 138.088 31.8 136.121 31.8C134.955 31.8 133.621 31.9167 132.121 32.15C130.621 32.35 129.171 32.6333 127.771 33V56.05ZM173.493 39.4C172.826 39.4 172.293 39.2333 171.893 38.9C171.493 38.5667 171.293 38.05 171.293 37.35C171.293 36.6167 171.493 36.0833 171.893 35.75C172.326 35.3833 172.86 35.2 173.493 35.2H199.443C199.943 34.7 200.326 34.1667 200.593 33.6C200.893 33 201.043 32.4333 201.043 31.9C201.043 31.2333 200.776 30.8167 200.243 30.65C199.71 30.45 198.743 30.35 197.343 30.35H174.443C173.643 30.35 172.993 30.1833 172.493 29.85C171.993 29.4833 171.743 28.9167 171.743 28.15C171.743 27.4167 171.976 26.8667 172.443 26.5C172.943 26.1333 173.61 25.95 174.443 25.95H198.043C200.71 25.95 202.743 26.3 204.143 27C205.543 27.7 206.243 28.85 206.243 30.45C206.243 31.4167 206.076 32.2667 205.743 33C205.41 33.7333 204.876 34.4667 204.143 35.2H204.743C206.11 35.2 206.793 35.9 206.793 37.3C206.793 38.0667 206.593 38.6167 206.193 38.95C205.793 39.25 205.31 39.4 204.743 39.4H179.093C178.16 40.5333 177.693 41.4667 177.693 42.2C177.693 42.9333 178.076 43.4333 178.843 43.7C179.61 43.9667 181.06 44.1833 183.193 44.35C184.693 44.4833 186.593 44.55 188.893 44.55C191.76 44.55 194.66 44.45 197.593 44.25C200.56 44.05 202.81 43.8167 204.343 43.55C204.81 43.45 205.226 43.4 205.593 43.4C206.126 43.4 206.543 43.5167 206.843 43.75C207.176 43.9833 207.41 44.3667 207.543 44.9L207.643 45.6C207.643 46.1667 207.46 46.6667 207.093 47.1C206.76 47.5 206.31 47.75 205.743 47.85C204.11 48.1833 201.743 48.45 198.643 48.65C195.543 48.85 192.393 48.95 189.193 48.95C186.76 48.95 184.343 48.8667 181.943 48.7C179.043 48.4667 176.81 48.0333 175.243 47.4C173.676 46.7667 172.81 45.7667 172.643 44.4C172.61 44.2333 172.593 44 172.593 43.7C172.593 42.2 173.193 40.7667 174.393 39.4H173.493ZM208.643 53.25C210.21 53.0833 210.993 53.8333 210.993 55.5C210.993 56.2667 210.793 56.8167 210.393 57.15C209.993 57.45 209.343 57.6333 208.443 57.7C203.81 58.1333 198.376 58.3833 192.143 58.45V66.6C192.143 67.2667 191.926 67.7833 191.493 68.15C191.093 68.55 190.46 68.75 189.593 68.75C188.76 68.75 188.143 68.55 187.743 68.15C187.343 67.7833 187.143 67.2667 187.143 66.6V58.5C180.543 58.4 175.043 58.1333 170.643 57.7C169.743 57.6333 169.093 57.45 168.693 57.15C168.326 56.8167 168.143 56.2667 168.143 55.5C168.143 53.8333 168.91 53.0833 170.443 53.25C175.843 53.75 182.21 54 189.543 54C196.876 54 203.243 53.75 208.643 53.25Z" fill="#00A65F"/>
<defs>
<linearGradient id="paint0_linear_1999_1866" x1="31.0296" y1="47.4746" x2="31.0296" y2="76.9996" gradientUnits="userSpaceOnUse">
<stop stop-color="#07C675"/>
<stop offset="1" stop-color="#1DC078"/>
</linearGradient>
<linearGradient id="paint1_linear_1999_1866" x1="31.0296" y1="20" x2="31.0296" y2="58.3572" gradientUnits="userSpaceOnUse">
<stop stop-color="#67DCAA"/>
<stop offset="1" stop-color="#00C471"/>
</linearGradient>
</defs>
</svg>
