<svg width="27" height="27" viewBox="0 0 27 27" fill="none" xmlns="http://www.w3.org/2000/svg">
<path d="M21.8683 10.125H16.0751L16.8581 6.21001C16.968 5.66149 16.9548 5.09542 16.8194 4.55264C16.684 4.00986 16.4298 3.5039 16.0751 3.07126C15.7214 2.63787 15.2756 2.2888 14.77 2.04943C14.2644 1.81006 13.7118 1.68642 13.1524 1.68751C12.4031 1.68751 11.7366 2.19038 11.5476 2.85694L10.7646 5.02707C9.89112 7.44682 8.68049 9.73116 7.1685 11.8125H4.21875C2.82319 11.8125 1.6875 12.9482 1.6875 14.3438V22.7813C1.6875 24.1768 2.82319 25.3125 4.21875 25.3125H19.2324C19.9524 25.3151 20.6542 25.0863 21.2343 24.6597C21.8143 24.2331 22.2419 23.6313 22.4539 22.9433L25.0898 14.5058C25.2505 14.0009 25.2888 13.4651 25.2017 12.9426C25.1145 12.42 24.9044 11.9257 24.5886 11.5003C24.2767 11.0718 23.8674 10.7235 23.3944 10.4844C22.9214 10.2453 22.3983 10.1221 21.8683 10.125ZM3.375 22.7813V14.3438C3.375 14.12 3.4639 13.9054 3.62213 13.7471C3.78036 13.5889 3.99497 13.5 4.21875 13.5H6.75V23.625H4.21875C3.99497 23.625 3.78036 23.5361 3.62213 23.3779C3.4639 23.2196 3.375 23.005 3.375 22.7813ZM23.4816 14.0029L20.8457 22.4404C20.7385 22.7839 20.5243 23.0841 20.2343 23.2972C19.9444 23.5103 19.594 23.6252 19.2341 23.625H8.43919V12.933C10.0886 10.6893 11.4066 8.21995 12.3525 5.60082L13.1541 3.37669C13.7835 3.37669 14.3741 3.65682 14.7724 4.14282C15.1723 4.63051 15.3309 5.26332 15.2061 5.87926L14.2223 10.8034C14.1978 10.9259 14.2008 11.0523 14.2311 11.1735C14.2614 11.2947 14.3183 11.4076 14.3975 11.5042C14.4768 11.6007 14.5765 11.6785 14.6895 11.7318C14.8025 11.7851 14.9259 11.8127 15.0508 11.8125H21.8734C22.4168 11.8125 22.9129 12.0623 23.2335 12.501C23.5541 12.9398 23.6469 13.4848 23.4849 14.0046L23.4816 14.0029Z" fill="black"/>
</svg>
