<svg width="32" height="32" viewBox="0 0 32 32" fill="none" xmlns="http://www.w3.org/2000/svg">
<path d="M13.3327 18.6667H18.666V16H13.3327V18.6667ZM13.3327 14.6667H23.9993V12H13.3327V14.6667ZM13.3327 10.6667H23.9993V8H13.3327V10.6667ZM10.666 24C9.93268 24 9.3049 23.7389 8.78268 23.2167C8.26046 22.6944 7.99935 22.0667 7.99935 21.3333V5.33334C7.99935 4.6 8.26046 3.97223 8.78268 3.45001C9.3049 2.92778 9.93268 2.66667 10.666 2.66667H26.666C27.3993 2.66667 28.0271 2.92778 28.5493 3.45001C29.0716 3.97223 29.3327 4.6 29.3327 5.33334V21.3333C29.3327 22.0667 29.0716 22.6944 28.5493 23.2167C28.0271 23.7389 27.3993 24 26.666 24H10.666ZM10.666 21.3333H26.666V5.33334H10.666V21.3333ZM5.33268 29.3333C4.59935 29.3333 3.97157 29.0722 3.44935 28.55C2.92713 28.0278 2.66602 27.4 2.66602 26.6667V8H5.33268V26.6667H23.9993V29.3333H5.33268Z" fill="#7AD07A"/>
</svg>
