<svg width="48" height="48" viewBox="0 0 48 48" fill="none" xmlns="http://www.w3.org/2000/svg">
<path d="M8.8075 36.9806C10.9325 35.404 13.2475 34.1588 15.7525 33.245C18.2571 32.3317 20.9229 31.875 23.75 31.875C26.5771 31.875 29.2429 32.3317 31.7475 33.245C34.2525 34.1588 36.5675 35.404 38.6925 36.9806C40.2467 35.2723 41.4781 33.2948 42.3869 31.0481C43.2956 28.8015 43.75 26.3687 43.75 23.75C43.75 18.2083 41.8021 13.4896 37.9062 9.59375C34.0104 5.69792 29.2917 3.75 23.75 3.75C18.2083 3.75 13.4896 5.69792 9.59375 9.59375C5.69792 13.4896 3.75 18.2083 3.75 23.75C3.75 26.3687 4.20437 28.8015 5.11312 31.0481C6.02187 33.2948 7.25333 35.2723 8.8075 36.9806ZM23.7506 25.625C21.4681 25.625 19.5433 24.8417 17.9762 23.275C16.4088 21.7079 15.625 19.7831 15.625 17.5006C15.625 15.2181 16.4083 13.2933 17.975 11.7262C19.5421 10.1587 21.4669 9.375 23.7494 9.375C26.0319 9.375 27.9567 10.1583 29.5238 11.725C31.0912 13.2921 31.875 15.2169 31.875 17.4994C31.875 19.7819 31.0917 21.7067 29.525 23.2738C27.9579 24.8412 26.0331 25.625 23.7506 25.625ZM23.75 47.5C20.4521 47.5 17.3583 46.8798 14.4688 45.6394C11.5792 44.399 9.06563 42.7098 6.92813 40.5719C4.79021 38.4344 3.10104 35.9208 1.86063 33.0312C0.620209 30.1417 0 27.0479 0 23.75C0 20.4521 0.620209 17.3583 1.86063 14.4688C3.10104 11.5792 4.79021 9.06562 6.92813 6.92812C9.06563 4.79021 11.5792 3.10104 14.4688 1.86063C17.3583 0.62021 20.4521 0 23.75 0C27.0479 0 30.1417 0.62021 33.0312 1.86063C35.9208 3.10104 38.4344 4.79021 40.5719 6.92812C42.7098 9.06562 44.399 11.5792 45.6394 14.4688C46.8798 17.3583 47.5 20.4521 47.5 23.75C47.5 27.0479 46.8798 30.1417 45.6394 33.0312C44.399 35.9208 42.7098 38.4344 40.5719 40.5719C38.4344 42.7098 35.9208 44.399 33.0312 45.6394C30.1417 46.8798 27.0479 47.5 23.75 47.5ZM23.75 43.75C26.0063 43.75 28.1817 43.3871 30.2762 42.6613C32.3708 41.935 34.2306 40.9198 35.8556 39.6156C34.2306 38.359 32.395 37.3798 30.3488 36.6781C28.3021 35.976 26.1025 35.625 23.75 35.625C21.3975 35.625 19.194 35.9719 17.1394 36.6656C15.0848 37.3598 13.2531 38.3431 11.6444 39.6156C13.2694 40.9198 15.1292 41.935 17.2237 42.6613C19.3183 43.3871 21.4937 43.75 23.75 43.75ZM23.75 21.875C24.9937 21.875 26.0337 21.4567 26.87 20.62C27.7067 19.7837 28.125 18.7437 28.125 17.5C28.125 16.2563 27.7067 15.2163 26.87 14.38C26.0337 13.5433 24.9937 13.125 23.75 13.125C22.5063 13.125 21.4662 13.5433 20.63 14.38C19.7933 15.2163 19.375 16.2563 19.375 17.5C19.375 18.7437 19.7933 19.7837 20.63 20.62C21.4662 21.4567 22.5063 21.875 23.75 21.875Z" fill="#00C471"/>
</svg>
