<svg width="25" height="25" viewBox="0 0 25 25" fill="none" xmlns="http://www.w3.org/2000/svg">
<rect x="1" y="1" width="23" height="23" rx="11.5" stroke="#00C471" stroke-width="2"/>
<g clip-path="url(#clip0_1045_865)">
<path d="M20.7274 21.447C20.2724 20.171 19.2674 19.044 17.8704 18.24C16.4734 17.436 14.7614 17 13.0004 17C11.2394 17 9.52744 17.436 8.13044 18.24C6.73344 19.044 5.72844 20.171 5.27344 21.447" stroke="#00C471" stroke-width="2" stroke-linecap="round"/>
<path d="M13 13C15.2091 13 17 11.2091 17 9C17 6.79086 15.2091 5 13 5C10.7909 5 9 6.79086 9 9C9 11.2091 10.7909 13 13 13Z" stroke="#00C471" stroke-width="2" stroke-linecap="round"/>
</g>
<defs>
<clipPath id="clip0_1045_865">
<rect width="18" height="19" fill="white" transform="translate(4 4)"/>
</clipPath>
</defs>
</svg>
